<?xml version="1.0" standalone="no"?>
<!DOCTYPE svg PUBLIC "-//W3C//DTD SVG 20010904//EN"
 "http://www.w3.org/TR/2001/REC-SVG-20010904/DTD/svg10.dtd">
<svg version="1.0" xmlns="http://www.w3.org/2000/svg"
 width="612.000000pt" height="612.000000pt" viewBox="0 0 612.000000 612.000000"
 preserveAspectRatio="xMidYMid meet">
<metadata>
Created by potrace 1.14, written by Peter Selinger 2001-2017
</metadata>
<g transform="translate(0.000000,612.000000) scale(0.100000,-0.100000)"
fill="#000000" stroke="none">
<path d="M3105 5540 c-25 -22 -56 -40 -68 -40 -12 0 -44 -7 -71 -15 -27 -8
-61 -15 -74 -15 -14 0 -44 -9 -66 -19 -52 -25 -143 -57 -226 -80 -96 -26 -141
-53 -234 -139 -46 -42 -102 -92 -125 -111 -23 -18 -52 -49 -65 -70 -13 -20
-41 -65 -64 -101 -22 -36 -57 -105 -77 -155 -20 -49 -40 -99 -45 -110 -52
-108 -70 -247 -70 -545 0 -194 9 -290 40 -452 20 -100 16 -148 -12 -148 -7 0
-3 -8 9 -18 30 -22 38 -70 21 -113 -14 -34 -15 -175 -2 -319 l5 -65 -26 33
c-22 26 -30 30 -41 21 -8 -6 -14 -26 -14 -44 0 -26 10 -41 50 -78 l50 -46 0
-71 c0 -79 -11 -92 -61 -73 -46 18 -34 4 15 -17 24 -10 47 -23 50 -29 4 -5 13
-61 22 -123 25 -186 53 -273 158 -488 25 -52 46 -104 46 -116 0 -44 -32 -163
-48 -177 -10 -9 -57 -36 -106 -61 -49 -26 -106 -62 -128 -81 -34 -31 -44 -35
-93 -35 -58 0 -116 -22 -146 -56 -9 -11 -29 -44 -44 -74 -45 -91 -70 -118
-117 -127 l-43 -9 35 -26 c47 -36 235 -128 346 -171 179 -69 393 -121 604
-147 116 -14 410 -25 410 -15 0 10 -70 92 -173 205 -80 86 -198 241 -274 360
-194 299 -213 375 -58 224 43 -41 94 -87 114 -100 20 -13 55 -39 77 -57 23
-17 65 -48 93 -67 28 -19 57 -40 64 -46 24 -21 161 -82 217 -97 137 -37 261
-42 403 -17 70 13 171 46 212 72 16 10 37 18 46 18 9 0 22 7 30 16 7 8 29 24
49 34 36 18 100 97 175 215 20 33 50 79 66 103 16 23 29 44 29 46 0 2 14 19
31 37 l31 33 -7 -226 c-8 -242 0 -438 18 -438 28 0 291 194 285 210 -3 9 -143
120 -222 177 -56 41 -61 62 -54 227 5 102 10 131 33 186 80 189 125 381 125
536 0 96 16 153 43 155 6 1 1 4 -13 8 -24 7 -25 10 -23 80 2 68 4 75 38 112
19 21 35 46 35 53 0 21 -19 30 -26 12 -3 -8 -13 -17 -21 -20 -14 -6 -15 5 -10
86 6 93 6 93 -7 33 -6 -33 -15 -65 -19 -72 -4 -7 -16 -50 -27 -95 -32 -137
-69 -251 -90 -273 -11 -12 -20 -30 -20 -41 0 -10 -9 -30 -19 -43 -14 -18 -17
-35 -14 -63 l6 -38 -37 0 c-33 0 -36 -2 -36 -30 0 -17 -10 -44 -22 -60 -18
-25 -20 -33 -10 -55 16 -34 15 -45 -3 -45 -17 0 -39 -46 -29 -61 3 -5 2 -18
-1 -30 -5 -14 -12 -18 -25 -14 -13 4 -20 0 -25 -15 -4 -11 -15 -20 -26 -20
-25 0 -58 69 -59 120 0 19 -9 49 -20 65 -11 17 -20 39 -20 50 0 49 -35 79
-171 148 -75 39 -146 82 -160 99 -30 33 -72 58 -98 58 -9 0 -34 -12 -56 -25
-55 -34 -84 -32 -131 10 -40 37 -41 37 -119 19 -16 -3 -46 -21 -65 -40 -19
-18 -69 -52 -110 -75 -41 -23 -80 -48 -88 -55 -7 -8 -20 -14 -28 -14 -27 0
-101 -79 -119 -127 -17 -43 -17 -47 -1 -58 15 -12 15 -18 -8 -85 -19 -58 -22
-77 -13 -100 8 -22 7 -33 -6 -54 -15 -23 -20 -24 -38 -13 -22 13 -71 103 -83
150 -3 15 -11 27 -16 27 -6 0 -10 9 -10 19 0 11 -12 33 -26 48 -15 15 -31 41
-36 56 -10 28 -75 77 -102 77 -16 0 -21 13 -32 75 -3 22 -12 47 -19 55 -29 36
-67 150 -85 258 -12 64 -29 146 -40 182 -40 139 -44 176 -26 295 24 164 42
259 54 281 6 10 13 27 16 37 9 28 23 12 31 -33 4 -22 10 -40 15 -40 5 0 32 30
62 68 61 77 83 99 118 113 35 15 304 12 363 -4 81 -22 176 -3 177 36 0 23 -79
77 -130 89 -77 16 -369 12 -424 -7 -26 -9 -42 -11 -45 -4 -1 5 -10 15 -18 22
-62 49 -73 66 -73 109 1 24 6 63 11 88 6 25 15 92 20 150 13 162 14 164 42
218 15 28 35 73 46 101 20 54 23 59 96 136 52 56 97 81 174 95 25 5 80 19 121
30 143 41 168 45 203 31 56 -22 148 -38 267 -47 139 -11 212 -8 225 9 14 17
86 9 102 -11 12 -16 14 -16 24 1 12 21 42 22 59 2 7 -8 24 -15 39 -15 34 0
108 -23 157 -48 47 -24 70 -49 118 -124 20 -31 41 -60 46 -63 24 -15 59 -86
69 -140 6 -32 11 -90 11 -128 0 -40 6 -80 14 -95 8 -15 20 -66 26 -114 12 -88
12 -88 41 -88 25 0 29 -4 29 -27 0 -16 7 -36 14 -46 11 -14 12 -27 4 -54 -5
-20 -7 -52 -4 -72 3 -20 8 -65 11 -101 6 -70 23 -156 35 -179 6 -11 10 -9 20
9 9 18 9 27 0 45 -9 16 -11 54 -6 127 22 366 16 631 -18 820 -27 147 -138 392
-214 472 -33 34 -79 71 -220 178 -24 18 -77 59 -118 91 -66 51 -115 80 -239
144 -16 9 -46 31 -65 49 -19 18 -55 39 -80 47 -93 30 -95 30 -145 -13z m232
-3003 c13 -11 26 -18 29 -14 4 3 19 0 35 -8 15 -8 41 -15 58 -15 16 0 33 -5
36 -11 4 -6 13 -8 21 -5 19 7 54 -28 54 -54 0 -13 7 -20 19 -20 31 0 76 -45
104 -102 31 -63 45 -138 27 -138 -9 0 -11 -13 -7 -45 6 -41 5 -45 -15 -42 -14
1 -25 -7 -37 -30 -9 -18 -22 -31 -28 -28 -7 2 -13 -2 -13 -10 0 -28 -21 -26
-38 4 -21 38 -40 40 -35 4 3 -23 -1 -30 -23 -40 -25 -12 -31 -10 -58 14 -73
65 -83 88 -41 99 14 3 38 23 53 43 15 20 30 38 35 39 13 6 7 29 -12 46 -19 17
-22 17 -71 -8 -28 -14 -66 -26 -84 -26 -18 0 -37 -5 -42 -10 -35 -35 -253 -17
-376 32 -94 37 -112 35 -116 -13 -2 -27 3 -44 23 -68 15 -17 33 -31 41 -31 8
0 13 -9 11 -22 -2 -20 2 -23 26 -20 31 3 35 -12 12 -46 -14 -20 -18 -20 -38
-8 -12 8 -43 17 -69 21 -31 4 -48 11 -48 20 0 7 -15 17 -32 21 -50 10 -80 33
-72 56 3 12 -6 36 -25 67 -36 56 -37 61 -12 61 12 0 23 11 30 30 28 81 71 108
119 74 13 -9 30 -13 38 -10 9 3 27 -3 41 -14 32 -25 43 -25 43 0 0 15 9 22 30
27 43 8 48 23 8 23 -19 0 -51 9 -73 20 -22 11 -50 20 -62 20 -13 0 -23 5 -23
10 0 6 4 10 8 10 5 0 30 14 56 31 29 20 62 33 86 34 22 1 50 10 64 19 24 15
28 15 85 -14 63 -32 101 -30 115 5 5 14 9 15 21 5 22 -19 64 -4 71 25 7 26 14
25 51 -8z m-60 -579 c5 -7 17 -32 27 -55 24 -54 15 -132 -15 -140 -10 -3 -19
-13 -19 -22 0 -10 -11 -27 -25 -39 -14 -12 -25 -28 -25 -36 0 -31 -18 -24 -45
17 -19 29 -30 59 -33 97 -2 30 -8 60 -12 65 -16 21 -22 76 -10 90 10 12 15 12
35 -1 26 -17 58 -7 69 21 7 18 40 20 53 3z m129 -76 c-5 -5 19 -58 37 -80 8
-11 12 -11 18 0 13 21 28 -3 22 -35 -5 -25 -7 -26 -22 -13 -14 13 -21 13 -42
2 -22 -11 -29 -11 -47 3 -17 13 -21 26 -21 66 1 57 23 92 46 74 7 -7 11 -14 9
-17z m-306 -148 c-18 -21 -24 -10 -9 18 8 14 14 18 17 10 2 -7 -2 -19 -8 -28z"/>
<path d="M3240 1869 c0 -5 5 -7 10 -4 6 3 10 8 10 11 0 2 -4 4 -10 4 -5 0 -10
-5 -10 -11z"/>
<path d="M3195 1821 c-3 -5 -1 -12 5 -16 5 -3 10 1 10 9 0 18 -6 21 -15 7z"/>
<path d="M3599 3983 c-60 -3 -80 -8 -94 -23 -10 -11 -26 -20 -36 -20 -22 0
-62 -54 -57 -78 3 -14 14 -17 68 -16 125 3 255 17 283 31 21 11 36 11 65 3 20
-5 49 -10 64 -10 19 0 45 -17 87 -56 l61 -56 0 44 c0 58 -50 135 -105 163 -42
20 -157 26 -336 18z"/>
<path d="M2580 3630 c-97 -12 -178 -38 -195 -64 -21 -32 -29 -82 -15 -91 19
-12 282 -9 312 3 22 9 28 20 35 64 9 53 9 53 43 50 51 -4 26 14 -45 32 -32 9
-62 15 -65 15 -3 -1 -34 -5 -70 -9z m105 -70 c0 -10 -13 -16 -42 -18 -32 -2
-43 1 -43 11 0 22 11 27 49 24 24 -1 36 -7 36 -17z m-150 -47 c8 -34 2 -38
-29 -18 -27 18 -35 50 -13 58 17 6 34 -10 42 -40z"/>
<path d="M3511 3630 l-24 -10 26 -24 c13 -12 28 -37 32 -54 8 -36 14 -42 63
-53 60 -13 88 -2 105 42 9 22 22 39 31 39 21 0 37 -31 25 -52 -8 -15 -3 -17
53 -15 57 2 63 4 60 22 -7 44 -37 69 -104 86 -84 21 -235 31 -267 19z m164
-51 c10 -15 3 -19 -41 -22 -30 -1 -39 2 -42 16 -3 14 4 17 37 17 22 0 43 -5
46 -11z"/>
<path d="M1812 3060 c0 -14 2 -19 5 -12 2 6 2 18 0 25 -3 6 -5 1 -5 -13z"/>
<path d="M2940 3050 c0 -5 5 -10 10 -10 6 0 10 5 10 10 0 6 -4 10 -10 10 -5 0
-10 -4 -10 -10z"/>
<path d="M1836 2955 c8 -68 19 -86 28 -44 3 18 2 35 -3 39 -6 3 -15 17 -21 30
-8 20 -9 16 -4 -25z"/>
<path d="M4300 2859 c-19 -16 -28 -29 -21 -29 13 0 65 49 59 55 -2 2 -19 -10
-38 -26z"/>
<path d="M3032 2858 c-19 -19 5 -38 47 -38 l36 1 -28 24 c-32 28 -38 30 -55
13z"/>
<path d="M3287 2863 c-14 -13 -6 -33 12 -33 16 0 31 18 31 36 0 7 -36 5 -43
-3z"/>
</g>
</svg>
